<svg class="main-svg" xmlns="http://www.w3.org/2000/svg" xmlns:xlink="http://www.w3.org/1999/xlink" width="3840" height="2160" style="" viewBox="0 0 1920 1080"><rect x="0" y="0" width="1920" height="1080" style="fill: rgb(255, 255, 255); fill-opacity: 1;"/><defs id="defs-ed70bf"><g class="clips"><clipPath id="cliped70bfxyplot" class="plotclip"><rect width="1517" height="900"/></clipPath><clipPath class="axesclip" id="cliped70bfx"><rect x="80" y="0" width="1517" height="1080"/></clipPath><clipPath class="axesclip" id="cliped70bfy"><rect x="0" y="100" width="1920" height="900"/></clipPath><clipPath class="axesclip" id="cliped70bfxy"><rect x="80" y="100" width="1517" height="900"/></clipPath></g><g class="gradients"/></defs><g class="bglayer"><rect class="bg" x="80" y="100" width="1517" height="900" style="fill: rgb(229, 236, 246); fill-opacity: 1; stroke-width: 0;"/></g><g class="layer-below"><g class="imagelayer"/><g class="shapelayer"/></g><g class="cartesianlayer"><g class="subplot xy"><g class="layer-subplot"><g class="shapelayer"/><g class="imagelayer"/></g><g class="gridlayer"><g class="x"><path class="xgrid crisp" transform="translate(263.34000000000003,0)" d="M0,100v900" style="stroke: rgb(255, 255, 255); stroke-opacity: 1; stroke-width: 1px;"/><path class="xgrid crisp" transform="translate(455.92,0)" d="M0,100v900" style="stroke: rgb(255, 255, 255); stroke-opacity: 1; stroke-width: 1px;"/><path class="xgrid crisp" transform="translate(648.51,0)" d="M0,100v900" style="stroke: rgb(255, 255, 255); stroke-opacity: 1; stroke-width: 1px;"/><path class="xgrid crisp" transform="translate(841.09,0)" d="M0,100v900" style="stroke: rgb(255, 255, 255); stroke-opacity: 1; stroke-width: 1px;"/><path class="xgrid crisp" transform="translate(1033.67,0)" d="M0,100v900" style="stroke: rgb(255, 255, 255); stroke-opacity: 1; stroke-width: 1px;"/><path class="xgrid crisp" transform="translate(1226.26,0)" d="M0,100v900" style="stroke: rgb(255, 255, 255); stroke-opacity: 1; stroke-width: 1px;"/><path class="xgrid crisp" transform="translate(1418.84,0)" d="M0,100v900" style="stroke: rgb(255, 255, 255); stroke-opacity: 1; stroke-width: 1px;"/></g><g class="y"><path class="ygrid crisp" transform="translate(0,958.1)" d="M80,0h1517" style="stroke: rgb(255, 255, 255); stroke-opacity: 1; stroke-width: 1px;"/><path class="ygrid crisp" transform="translate(0,806.11)" d="M80,0h1517" style="stroke: rgb(255, 255, 255); stroke-opacity: 1; stroke-width: 1px;"/><path class="ygrid crisp" transform="translate(0,654.12)" d="M80,0h1517" style="stroke: rgb(255, 255, 255); stroke-opacity: 1; stroke-width: 1px;"/><path class="ygrid crisp" transform="translate(0,502.12)" d="M80,0h1517" style="stroke: rgb(255, 255, 255); stroke-opacity: 1; stroke-width: 1px;"/><path class="ygrid crisp" transform="translate(0,350.13)" d="M80,0h1517" style="stroke: rgb(255, 255, 255); stroke-opacity: 1; stroke-width: 1px;"/><path class="ygrid crisp" transform="translate(0,198.14)" d="M80,0h1517" style="stroke: rgb(255, 255, 255); stroke-opacity: 1; stroke-width: 1px;"/></g></g><g class="zerolinelayer"/><path class="xlines-below"/><path class="ylines-below"/><g class="overlines-below"/><g class="xaxislayer-below"/><g class="yaxislayer-below"/><g class="overaxes-below"/><g class="plot" transform="translate(80, 100)" clip-path="url('#cliped70bfxyplot')"><g class="scatterlayer mlayer"><g class="trace scatter trace9a5474" style="stroke-miterlimit: 2; opacity: 1;"><g class="fills"/><g class="errorbars"/><g class="lines"><path class="js-line" d="M115.55,845.63L122.52,845.9L126.01,846.47L132.98,845.97L136.46,845.43L160.86,841.33L164.35,834.53L171.32,816.64L174.8,800.41L178.29,782.24L181.77,750.13L185.26,257.32L188.74,249.2L213.14,213.32L216.63,209.49L227.08,201.4L230.57,197.5L234.05,193.97L237.54,189.12L247.99,167.87L251.48,159L254.96,154.55L258.45,152.67L265.42,149.51L268.9,148.89L279.36,148.58L282.85,147.31L296.79,137.63L300.27,134.26L303.76,133.79L307.24,134.64L310.73,136.82L314.21,141.9L324.67,158.67L328.15,162.58L331.64,168.3L335.12,169.33L338.61,170.58L342.1,170.6L349.07,164.95L352.55,161.31L359.52,154.9L363.01,152.38L366.49,149.86L369.98,145.74L376.95,137.16L380.43,133.4L383.92,130.52L387.4,126.21L390.89,121.92L394.37,119.77L401.35,119.28L404.83,119.3L418.77,126.87L422.26,128.91L429.23,134.09L432.71,137L439.68,143.28L443.17,147.18L460.59,168.1L464.08,171.76L471.05,177.62L474.54,180.34L491.96,191.4L495.45,192.68L502.42,194.06L505.9,193.61L512.87,192.16L516.36,190.91L523.33,187.6L526.81,184.9L530.3,181.77L533.79,177.53L540.76,168.39L544.24,162.01L551.21,150.04L554.7,140.21L561.67,121.99L565.15,116.57L572.12,109.11L575.61,106.64L579.09,104.4L582.58,103.51L589.55,102.84L593.03,103.08L606.98,108.91L610.46,111.46L620.92,118.93L624.4,121.37L627.89,124.76L631.37,126.68L638.34,131.69L641.83,134.16L652.28,140L655.77,140.58L666.23,142.86L669.71,142.24L680.17,143.3L683.65,142.41L687.14,140.89L690.62,137.29L697.59,129.11L701.08,123.67L708.05,110.59L711.53,105.47L718.5,99.36L721.99,98.14L725.47,98.48L728.96,101.73L732.45,109.5L735.93,115.41L746.39,126.77L749.87,134.55L753.36,145.39L756.84,166.1L760.33,610.65L763.81,727.76L767.3,764.88L770.78,791.17L774.27,808.49L777.75,817.84L784.72,829.71L788.21,833.07L798.67,842.95L802.15,845.13L809.12,847.09L812.61,847.25L819.58,848.03L823.06,848.44L837,849.11L840.49,849.65L847.46,849.68" style="vector-effect: non-scaling-stroke; fill: none; stroke: rgb(255, 165, 0); stroke-opacity: 1; stroke-width: 2px; opacity: 1;"/></g><g class="points"/><g class="text"/></g><g class="trace scatter traceb96ac9" style="stroke-miterlimit: 2; opacity: 1;"><g class="fills"/><g class="errorbars"/><g class="lines"><path class="js-line" d="M115.55,844.76L122.52,845.04L126.01,845.66L129.49,845.79L132.98,845.13L160.86,840.16L164.35,832.89L171.32,813.75L174.8,796.37L178.29,776.93L181.77,742.58L185.26,215.31L188.74,206.63L213.14,168.23L216.63,164.14L227.08,155.49L230.57,151.31L234.05,147.53L237.54,142.35L247.99,119.61L251.48,110.12L254.96,105.36L258.45,103.35L265.42,99.97L268.9,99.3L279.36,98.97L282.85,97.61L296.79,87.25L300.27,83.65L303.76,83.14L307.24,84.06L310.73,86.38L314.21,91.82L324.67,109.76L328.15,113.95L331.64,120.07L335.12,121.17L338.61,122.51L342.1,122.53L349.07,116.48L352.55,112.59L359.52,105.73L363.01,103.04L366.49,100.34L369.98,95.94L376.95,86.75L380.43,82.73L383.92,79.65L387.4,75.04L390.89,70.45L394.37,68.15L401.35,67.62L404.83,67.64L418.77,75.74L422.26,77.93L429.23,83.47L432.71,86.59L439.68,93.3L443.17,97.47L460.59,119.85L464.08,123.77L471.05,130.04L474.54,132.96L491.96,144.79L495.45,146.16L502.42,147.63L505.9,147.16L512.87,145.6L516.36,144.26L523.33,140.72L526.81,137.83L530.3,134.49L533.79,129.94L540.76,120.17L544.24,113.34L551.21,100.53L554.7,90.02L561.67,70.52L565.15,64.73L572.12,56.74L575.61,54.1L579.09,51.71L582.58,50.75L589.55,50.03L593.03,50.29L606.98,56.53L610.46,59.25L617.43,65.2L620.92,67.25L624.4,69.86L627.89,73.49L634.86,77.79L638.34,80.9L648.8,88.22L652.28,89.79L659.25,91.33L662.74,92.7L666.23,92.86L669.71,92.19L680.17,93.32L683.65,92.37L687.14,90.74L690.62,86.89L697.59,78.14L701.08,72.32L708.05,58.32L711.53,52.85L715.02,49L718.5,46.31L721.99,45L725.47,45.37L728.96,48.84L732.45,57.16L735.93,63.48L739.42,67.22L746.39,75.64L749.87,83.96L753.36,95.55L756.84,117.72L760.33,593.35L763.81,718.65L767.3,758.37L770.78,786.49L774.27,805.03L777.75,815.03L784.72,827.72L788.21,831.32L798.67,841.89L802.15,844.22L809.12,846.32L812.61,846.49L819.58,847.32L823.06,847.76L837,848.48L840.49,849.06L847.46,849.09" style="vector-effect: non-scaling-stroke; fill: none; stroke: rgb(255, 165, 0); stroke-opacity: 1; stroke-width: 3px; opacity: 1; stroke-dasharray: 3px, 3px;"/></g><g class="points"/><g class="text"/></g><g class="trace scatter trace035750" style="stroke-miterlimit: 2; opacity: 1;"><g class="fills"/><g class="errorbars"/><g class="lines"><path class="js-line" d="M3.38,854.53L110.75,854.13L113.73,853.76L161.45,847.57L164.43,846.84L182.33,842.44L185.31,839.23L194.26,827.45L197.24,822.17L212.15,784.87L215.13,773.81L221.1,763.7L224.08,768.87L230.05,780.11L233.03,789.19L238.99,804.64L241.98,811.69L244.96,818.16L247.94,822.24L256.89,834.35L259.87,836.48L274.78,846.37L277.76,846.92L304.61,851.14L307.59,851.24L331.45,851.49L334.43,851.23L358.29,848.63L361.27,848.02L382.15,843.25L385.13,841.58L406.01,829.93L408.99,826.96L423.9,809.24L426.89,805.16L435.83,794.05L438.81,790.92L447.76,782.42L450.74,782.68L471.62,784.49L474.6,783.93L489.52,766.07L492.5,758.92L498.46,733.42L501.45,718.85L507.41,690.83L510.39,673.06L516.36,625.58L519.34,588.11L534.25,427.86L537.23,412.48L540.22,384.31L543.2,374.22L546.18,357.77L549.16,333.93L552.15,311.28L555.13,279.11L558.11,253.58L561.09,247.19L564.08,240.8L567.06,213.05L570.04,185L573.02,164.97L578.99,136.36L581.97,129.61L584.95,118.75L587.94,98.14L599.86,111.63L602.85,132.23L605.83,151.26L608.81,142.51L611.79,134.08L614.78,140.29L617.76,152.94L620.74,169.39L629.69,247.83L632.67,317.94L635.65,412.28L638.64,477.47L641.62,527.82L644.6,598.88L647.58,639.54L650.57,651.85L656.53,673.67L659.51,683.45L662.5,700.32L665.48,698.18L677.41,664.46L680.39,664.97L683.37,675.82L686.35,700.84L689.34,711.53L692.32,725.47L698.28,752.58L701.27,764.58L707.23,791.97L710.21,794.9L725.13,808.9L728.11,809.87L751.97,817.33L754.95,816.65L784.77,809.36L787.76,808.43L808.63,802.38L811.62,801.87L850.39,794.45L853.37,793.82L859.33,791.86L862.32,788.46L871.26,778.26L874.25,772.8L880.21,758.4L883.19,748.89L886.18,742.86L889.16,738.65L892.14,738.53L895.12,741.9L910.04,759.63L913.02,766.72L916,773.76L918.98,777.08L930.91,789.77L933.89,790.43L960.74,795.68L963.72,795.51L975.65,794.82L978.63,793.52L993.54,780.07L996.53,778.16L1011.44,768.6L1014.42,767.74L1029.33,767.32L1032.31,769.81L1050.21,790.5L1053.19,792.65L1077.05,800.99L1080.03,801.28L1145.65,807.05L1148.63,806.97L1175.47,805.64L1178.45,805.29L1196.35,803.47L1199.33,803.6L1229.15,805.37L1232.14,805.72L1267.92,810.64L1270.91,811.12L1279.85,811.45L1282.84,811.48L1315.64,811.35L1318.63,810.69L1369.33,798.7L1372.31,797.83L1384.24,793.72L1387.22,792.42L1396.17,788.53L1399.15,788.43L1425.99,793.59L1428.97,794.98L1455.82,811.78L1458.8,813.46L1488.62,829.74L1491.61,830.16L1509.5,832.69" style="vector-effect: non-scaling-stroke; fill: none; stroke: rgb(255, 0, 0); stroke-opacity: 1; stroke-width: 2px; opacity: 1;"/></g><g class="points"/><g class="text"/></g><g class="trace scatter trace70aa4e" style="stroke-miterlimit: 2; opacity: 1;"><g class="fills"/><g class="errorbars"/><g class="lines"><path class="js-line" d="M3.38,855L113.73,854.33L116.71,854L161.45,848.95L164.43,848.32L182.33,844.5L185.31,841.7L194.26,831.47L197.24,826.88L212.15,794.48L215.13,784.88L221.1,776.09L224.08,780.58L230.05,790.35L233.03,798.23L238.99,811.66L241.98,817.78L244.96,823.4L247.94,826.95L256.89,837.47L259.87,839.32L274.78,847.91L277.76,848.39L304.61,852.05L307.59,852.14L331.45,852.36L334.43,852.14L361.27,849.35L364.25,848.82L382.15,845.2L385.13,843.75L406.01,833.63L408.99,831.05L423.9,815.65L426.89,812.11L435.83,802.46L438.81,799.74L447.76,792.36L450.74,792.58L474.6,793.66L477.59,790.56L489.52,778.15L492.5,771.94L498.46,749.79L501.45,737.13L507.41,712.79L510.39,697.35L516.36,656.1L519.34,623.55L534.25,484.33L537.23,470.97L540.22,446.49L543.2,437.73L546.18,423.44L549.16,402.73L552.15,383.04L555.13,355.1L558.11,332.92L561.09,327.37L564.08,321.81L567.06,297.71L570.04,273.34L573.02,255.94L578.99,231.08L581.97,225.22L584.95,215.79L587.94,197.87L599.86,209.6L602.85,227.5L605.83,244.03L608.81,236.43L611.79,229.1L614.78,234.5L617.76,245.48L620.74,259.78L629.69,327.93L632.67,388.84L635.65,470.79L638.64,527.43L641.62,571.17L644.6,632.9L647.58,668.23L650.57,678.92L656.53,697.87L659.51,706.37L662.5,721.02L665.48,719.17L677.41,689.87L680.39,690.32L683.37,699.74L686.35,721.48L689.34,730.77L692.32,742.87L698.28,766.43L701.27,776.85L707.23,800.65L710.21,803.2L725.13,815.36L728.11,816.2L751.97,822.68L754.95,822.09L787.76,814.95L790.74,814.15L811.62,809.25L814.6,808.8L853.37,802.25L856.35,801.7L859.33,800.55L862.32,797.6L871.26,788.73L874.25,783.99L880.21,771.49L883.19,763.23L886.18,757.99L889.16,754.32L892.14,754.22L895.12,757.15L910.04,772.55L913.02,778.71L916,784.83L918.98,787.71L930.91,798.74L933.89,799.31L960.74,803.87L963.72,803.73L975.65,803.13L978.63,802L993.54,790.31L996.53,788.65L1011.44,780.35L1014.42,779.6L1029.33,779.24L1032.31,781.4L1050.21,799.38L1053.19,801.24L1077.05,808.49L1080.03,808.74L1148.63,813.68L1151.61,813.61L1175.47,812.52L1178.45,812.22L1199.33,810.75L1202.31,810.86L1232.14,812.6L1235.12,812.9L1267.92,816.87L1270.91,817.28L1282.84,817.6L1285.82,817.62L1315.64,817.48L1318.63,816.91L1369.33,806.5L1372.31,805.74L1384.24,802.17L1387.22,801.04L1396.17,797.66L1399.15,797.57L1428.97,803.26L1431.96,804.97L1455.82,817.86L1458.8,819.32L1488.62,833.46L1491.61,833.82L1509.5,836.02" style="vector-effect: non-scaling-stroke; fill: none; stroke: rgb(255, 0, 0); stroke-opacity: 1; stroke-width: 3px; opacity: 1; stroke-dasharray: 3px, 3px;"/></g><g class="points"/><g class="text"/></g><g class="trace scatter tracef55387" style="stroke-miterlimit: 2; opacity: 1;"><g class="fills"/><g class="errorbars"/><g class="lines"><path class="js-line" d="M0.23,853.41L161.63,853.3L164.62,852.51L185.54,846.95L188.53,843.73L203.48,827.62L206.47,822.1L215.43,803.8L218.42,800.53L263.26,763.66L266.25,760.25L284.18,739.66L287.17,735.02L296.14,721.09L299.13,714.86L308.09,680.03L311.08,669.99L317.06,638.03L320.05,626.67L337.98,563.69L340.97,553.69L343.96,554.6L346.95,556.37L355.92,561.71L358.91,558.52L364.88,546.67L367.87,538.08L370.86,526.56L373.85,504.56L376.84,477.65L379.83,462.03L382.82,451L385.81,433.7L391.78,396.29L394.77,373.37L397.76,352.29L400.75,314.17L403.74,289.11L406.73,270.5L412.71,249.38L415.7,223.23L421.67,176.98L424.66,161.96L436.62,108.42L439.61,104.72L445.59,98.14L448.58,106.28L454.55,122.58L457.54,113.38L460.53,102.27L463.52,102.98L472.49,114.65L475.48,133.79L481.45,185.54L484.44,200.46L490.42,225.09L493.41,239.82L511.34,330.13L514.33,347.15L517.32,374.48L520.31,411.14L529.28,468.82L532.27,502.37L535.26,525.48L538.25,540L544.22,585.92L547.21,600.96L550.2,615.95L553.19,649.5L562.16,708.01L565.15,721.71L568.13,734.62L571.12,741.89L580.09,763.72L583.08,768.28L598.02,789.67L601.01,791.52L621.94,803.18L624.93,807.34L639.87,828.04L642.86,829.8L657.8,838.44L660.79,838.06L681.72,835.39L684.71,836.13L708.62,846.21L711.61,846.54L738.51,848.85L741.5,848.54L765.41,845.6L768.4,844.47L804.27,831.19L807.25,830.77L831.17,827.06L834.16,825.78L855.08,816.8L858.07,814.47L878.99,795.8L881.98,791.36L893.94,773.77L896.92,775.88L935.78,804.02L938.77,803.13L962.68,795.39L965.67,793.14L989.58,775.14L992.57,771.21L1016.48,738.85L1019.47,739.99L1055.34,762.43L1058.33,764.36L1097.19,771.4L1100.18,771.89L1124.09,775.13L1127.08,775.45L1145.01,776.74L1148,776.66L1174.9,775.33L1177.89,775.05L1195.82,773.85L1198.81,774.19L1225.71,776.75L1228.7,776.92L1252.61,778.72L1255.6,779.42L1285.49,787.02L1288.48,788.01L1306.42,794L1309.41,793.96L1348.26,783.82L1351.25,782.85L1381.14,772.84L1384.13,770.95L1408.04,756.09L1411.03,757.7L1434.94,770.89L1437.93,773.03L1488.75,808.6L1491.73,810.01L1509.67,818.47" style="vector-effect: non-scaling-stroke; fill: none; stroke: rgb(0, 128, 0); stroke-opacity: 1; stroke-width: 2px; opacity: 1;"/></g><g class="points"/><g class="text"/></g><g class="trace scatter tracea597de" style="stroke-miterlimit: 2; opacity: 1;"><g class="fills"/><g class="errorbars"/><g class="lines"><path class="js-line" d="M0.23,855L164.62,854.41L167.61,853.88L185.54,850.73L188.53,848.61L203.48,837.96L206.47,834.32L215.43,822.22L218.42,820.06L263.26,795.7L266.25,793.45L287.17,776.78L290.16,773.71L299.13,763.46L302.11,755.1L308.09,740.44L311.08,733.81L317.06,712.69L320.05,705.19L337.98,663.58L340.97,656.97L346.95,658.74L349.94,659.91L355.92,662.26L358.91,660.16L364.88,652.33L367.87,646.65L370.86,639.04L373.85,624.5L376.84,606.72L379.83,596.4L382.82,589.12L385.81,577.68L391.78,552.97L394.77,537.82L397.76,523.89L400.75,498.71L403.74,482.15L406.73,469.86L412.71,455.9L415.7,438.62L421.67,408.07L424.66,398.14L436.62,362.77L439.61,360.32L445.59,355.97L448.58,361.35L454.55,372.12L457.54,366.04L460.53,358.7L463.52,359.17L472.49,366.88L475.48,379.53L481.45,413.72L484.44,423.58L490.42,439.85L493.41,449.58L511.34,509.25L514.33,520.5L517.32,538.56L520.31,562.78L529.28,600.89L532.27,623.06L535.26,638.33L538.25,647.92L544.22,678.26L547.21,688.2L550.2,698.11L553.19,720.27L562.16,758.93L565.15,767.98L568.13,776.51L571.12,781.32L580.09,795.74L583.08,798.75L598.02,812.89L601.01,814.11L621.94,821.81L624.93,824.56L639.87,838.24L642.86,839.4L657.8,845.11L660.79,844.86L684.71,843.58L687.69,844.42L711.61,850.46L714.6,850.68L738.51,851.99L741.5,851.79L765.41,849.84L768.4,849.09L807.25,840.04L810.24,839.76L831.17,837.59L834.16,836.74L858.07,829.27L861.06,827.51L878.99,816.94L881.98,814L893.94,802.38L896.92,803.77L935.78,822.37L938.77,821.78L962.68,816.66L965.67,815.18L989.58,803.29L992.57,800.69L1016.48,779.31L1019.47,780.06L1061.32,796.56L1064.31,796.94L1115.12,802.63L1118.11,802.85L1148,804.29L1150.99,804.24L1180.88,803.05L1183.87,802.86L1198.81,802.66L1201.8,802.89L1234.68,804.68L1237.67,804.79L1255.6,806.11L1258.59,806.58L1288.48,811.79L1291.47,812.45L1309.41,815.72L1312.39,815.24L1351.25,808.38L1354.24,807.74L1381.14,801.77L1384.13,800.52L1408.04,790.7L1411.03,791.76L1437.93,801.89L1440.92,803.31L1488.75,825.39L1491.73,826.33L1509.67,831.92" style="vector-effect: non-scaling-stroke; fill: none; stroke: rgb(0, 128, 0); stroke-opacity: 1; stroke-width: 3px; opacity: 1; stroke-dasharray: 3px, 3px;"/></g><g class="points"/><g class="text"/></g><g class="trace scatter trace1eae3f" style="stroke-miterlimit: 2; opacity: 1;"><g class="fills"/><g class="errorbars"/><g class="lines"><path class="js-line" d="M2.51,852.36L89.06,852.28L92.04,852.19L115.92,850.86L118.9,850.45L139.79,847.17L142.78,846.18L163.67,839.28L166.65,836.4L181.58,805.05L184.56,780.97L196.5,551.88L199.48,487.76L202.47,446.23L205.45,389.94L211.42,337.58L214.4,308.57L220.37,285.69L223.36,278.94L244.25,230.11L247.23,222.2L250.22,213.56L253.2,200.69L256.19,187.83L259.17,180.62L268.13,161.09L271.11,156.59L289.02,135.28L292,128.72L300.95,109.92L303.94,105.85L309.91,98.14L312.89,98.65L324.83,100.73L327.82,113.38L336.77,150.38L339.75,163.61L357.66,233.54L360.64,243.47L366.61,288.51L369.6,317.9L372.58,334.62L375.57,346.56L387.51,392.02L390.49,411.4L396.46,456.65L399.44,505.96L405.41,554.93L408.4,571.3L417.35,612.89L420.33,623.64L426.3,641.47L429.29,647.06L441.23,669.45L444.21,672.04L462.12,685.96L465.1,690.33L474.06,715.64L477.04,722.23L485.99,742.01L488.98,745.37L497.93,755.34L500.92,755.45L515.84,746.95L518.82,745.47L539.71,735.91L542.7,735.67L566.57,734.12L569.56,734.45L596.42,738.14L599.4,738.92L614.33,742.85L617.31,745.71L629.25,774.78L632.23,780.64L644.17,803.28L647.16,807.08L650.14,810.88L653.12,808.71L662.08,798.98L665.06,789.73L668.05,785.47L671.03,788.07L677,793.25L679.99,796.95L691.92,819.13L694.91,822.51L703.86,832.65L706.85,834.74L733.71,838.45L736.69,838.24L790.41,834.99L793.4,835.04L817.27,834.8L820.26,834.4L841.15,831.11L844.13,829.52L865.02,818.42L868.01,815.75L882.93,800.15L885.91,796.69L888.9,794.47L891.88,793.43L903.82,789.48L906.81,789.35L918.74,788.61L921.73,786.59L969.48,755.22L972.47,753.3L993.36,729.35L996.34,724L1002.31,713.3L1005.29,710.89L1014.25,718.61L1017.23,722.96L1032.15,745.87L1035.14,748.35L1062,759.38L1064.98,760L1097.81,765.96L1100.8,766.35L1145.57,771.59L1148.55,771.37L1172.43,769.21L1175.41,768.62L1196.3,764.71L1199.29,765.66L1223.16,773.21L1226.15,773.17L1250.02,772.86L1253.01,773.75L1276.88,780.86L1279.87,780.74L1303.74,779.62L1306.73,778.55L1336.57,767.78L1339.56,766.95L1357.46,762L1360.45,760.27L1384.32,745.01L1387.31,745.07L1411.18,749.87L1414.17,751.78L1491.77,813.58L1494.75,815.1L1509.67,819.91" style="vector-effect: non-scaling-stroke; fill: none; stroke: rgb(0, 0, 255); stroke-opacity: 1; stroke-width: 2px; opacity: 1;"/></g><g class="points"/><g class="text"/></g><g class="trace scatter trace8ba6d1" style="stroke-miterlimit: 2; opacity: 1;"><g class="fills"/><g class="errorbars"/><g class="lines"><path class="js-line" d="M2.51,854.86L106.96,854.49L109.95,854.43L139.79,851.92L142.78,851.36L163.67,847.46L166.65,845.84L181.58,828.11L184.56,814.5L196.5,685.01L199.48,648.76L202.47,625.28L205.45,593.46L211.42,563.86L214.4,547.47L220.37,534.54L223.36,530.72L244.25,503.12L247.23,498.65L250.22,493.76L253.2,486.49L256.19,479.22L259.17,475.14L271.11,461.56L274.09,459.63L289.02,449.51L292,445.8L300.95,435.18L303.94,432.87L309.91,428.52L312.89,428.81L324.83,429.98L327.82,437.13L336.77,458.05L339.75,465.52L357.66,505.06L360.64,510.67L366.61,536.13L369.6,552.74L372.58,562.19L375.57,568.94L387.51,594.64L390.49,605.59L396.46,631.18L399.44,659.05L405.41,686.73L408.4,695.98L417.35,719.49L420.33,725.57L426.3,735.64L429.29,738.81L441.23,751.46L444.21,752.93L462.12,760.79L465.1,763.26L474.06,777.57L477.04,781.3L485.99,792.48L488.98,794.38L497.93,800.01L500.92,800.08L521.81,793.6L524.79,792.76L539.71,789.03L542.7,788.9L569.56,788.21L572.54,788.4L599.4,790.73L602.39,791.18L614.33,792.95L617.31,794.57L629.25,811L632.23,814.32L644.17,827.11L647.16,829.26L650.14,831.41L653.12,830.18L662.08,824.68L665.06,819.45L668.05,817.05L671.03,818.51L679.99,823.53L682.97,826.9L691.92,836.07L694.91,837.98L706.85,844.9L709.83,845.16L736.69,846.87L739.67,846.75L796.38,845.1L799.36,845.13L820.26,844.71L823.24,844.48L841.15,842.84L844.13,841.95L868.01,834.16L870.99,832.49L888.9,822.13L891.88,821.54L906.81,819.24L909.79,819.16L918.74,818.82L921.73,817.68L975.45,797L978.43,795.13L993.36,785.32L996.34,782.3L1002.31,776.25L1005.29,774.89L1014.25,779.25L1017.23,781.71L1032.15,794.66L1035.14,796.07L1064.98,802.65L1067.97,802.99L1103.78,806.46L1106.77,806.67L1148.55,809.08L1151.53,808.96L1178.39,807.19L1181.38,806.86L1196.3,805.31L1199.29,805.85L1226.15,810.09L1229.13,810.07L1253.01,810.42L1255.99,810.92L1279.87,814.37L1282.85,814.29L1306.73,813.13L1309.71,812.49L1342.54,806.11L1345.53,805.64L1360.45,802.8L1363.43,801.72L1384.32,794.17L1387.31,794.21L1414.17,798L1417.15,799.35L1491.77,832.93L1494.75,833.79L1509.67,836.52" style="vector-effect: non-scaling-stroke; fill: none; stroke: rgb(0, 0, 255); stroke-opacity: 1; stroke-width: 3px; opacity: 1; stroke-dasharray: 3px, 3px;"/></g><g class="points"/><g class="text"/></g><g class="trace scatter trace14f817" style="stroke-miterlimit: 2; opacity: 1;"><g class="fills"/><g class="errorbars"/><g class="lines"><path class="js-line" d="M0,850.47L48.06,849.71L51.07,849.54L141.19,843.91L144.19,843.6L156.21,842.37L159.21,840.98L168.22,834.46L171.23,827.62L174.23,812.6L177.23,802.88L180.24,793.16L183.24,780.79L186.25,750.86L189.25,736.43L192.25,706.54L195.26,666.58L198.26,634.36L201.27,619.57L207.27,575.12L210.28,557.81L213.28,529.86L216.29,516.42L222.29,481.75L225.3,470.1L228.3,455.04L231.3,444.54L237.31,437.89L240.32,436.57L249.33,435.43L252.33,431.48L258.34,419.24L261.34,416.71L267.35,411.67L270.36,404.68L273.36,394.16L276.36,392.53L300.4,378.97L303.4,376.1L306.4,373.23L309.41,368.53L312.41,358.59L315.42,353.94L321.42,344.63L324.43,330.34L339.45,321.03L342.45,317.82L351.46,308.39L354.47,307.5L366.48,303.93L369.49,301.27L381.5,289.79L384.51,283.38L387.51,277.98L390.51,278.27L399.53,279.13L402.53,278.37L411.54,268.29L414.55,263.42L417.55,258.55L420.55,262.46L429.57,277.34L432.57,267.06L435.57,258.73L438.58,254.34L447.59,244.72L450.59,239.85L456.6,230.1L459.61,226.77L465.61,243.21L468.62,245.1L477.63,214.27L480.63,207.71L483.64,202.19L486.64,201.11L495.65,207.96L498.66,208.38L510.67,204.81L513.68,196.05L516.68,178.29L519.69,175.42L531.7,163.11L534.7,159.79L537.71,158.19L540.71,157.68L552.73,155.67L555.73,156.13L567.75,163.38L570.75,161.21L573.76,145.06L576.76,137.08L579.76,130.3L582.77,138.95L585.77,149.02L588.78,147.07L594.78,143.19L597.79,128.5L600.79,112.8L603.8,113.28L606.8,113.77L609.8,111.94L618.82,98.14L621.82,99.18L624.82,168.83L627.83,120.72L633.84,156.11L636.84,155.21L639.84,183.46L642.85,195.03L645.85,483.63L648.86,612.04L651.86,628.51L654.86,689.95L660.87,704.38L663.88,709.1L666.88,713.82L669.88,712.19L675.89,702.88L678.9,683.67L681.9,671.25L684.9,681.74L693.91,711.86L696.92,739.41L699.92,760.83L702.93,776.72L705.93,790.79L708.93,799.67L729.96,811.31L732.97,811.96L757,816.9L760,816.4L790.04,810.73L793.05,809.9L829.09,800.43L832.1,799.98L850.12,799.61L853.12,798.43L865.14,793.61L868.14,789.84L874.15,782.29L877.16,776.12L880.16,769.35L883.16,751.52L895.18,740.74L898.18,744.8L910.2,761.3L913.2,766.59L919.21,776.65L922.22,780.55L928.22,788.33L931.23,790.65L961.27,794.76L964.27,794.19L985.3,790.24L988.3,788.09L1000.32,779.93L1003.32,778.46L1015.34,772.97L1018.34,772.22L1024.35,770.73L1027.35,771.22L1045.38,785.08L1048.38,786.97L1054.39,790.38L1057.39,791.37L1075.42,796.64L1078.42,797.12L1123.48,803.78L1126.49,804.14L1147.51,806.13L1150.52,805.87L1210.6,800.13L1213.6,800.68L1237.63,804.67L1240.64,804.84L1294.71,807.28L1297.71,807.27L1330.75,806.42L1333.76,806.2L1342.77,805.28L1345.77,803.81L1354.79,799.43L1357.79,799.42L1375.81,799.35L1378.82,798.29L1399.85,789.98L1402.85,789.73L1417.87,788.79L1420.87,789.53L1435.89,793.52L1438.9,795.41L1450.91,802.2L1453.92,803.49L1471.94,811.82L1474.94,813.63L1483.96,818.86L1486.96,819.6L1517,826.98" style="vector-effect: non-scaling-stroke; fill: none; stroke: rgb(0, 0, 0); stroke-opacity: 1; stroke-width: 2px; opacity: 1;"/></g><g class="points"/><g class="text"/></g><g class="trace scatter trace176c86" style="stroke-miterlimit: 2; opacity: 1;"><g class="fills"/><g class="errorbars"/><g class="lines"><path class="js-line" d="M0,850.64L51.07,849.73L54.07,849.56L141.19,844.21L144.19,843.91L156.21,842.71L159.21,841.35L168.22,834.97L171.23,828.27L174.23,813.58L177.23,804.07L180.24,794.56L183.24,782.46L186.25,753.17L189.25,739.05L192.25,709.8L195.26,670.7L198.26,639.17L201.27,624.7L207.27,581.21L210.28,564.26L213.28,536.92L216.29,523.76L222.29,489.84L225.3,478.44L228.3,463.7L231.3,453.43L237.31,446.92L240.32,445.64L249.33,444.52L252.33,440.65L258.34,428.67L261.34,426.2L267.35,421.26L270.36,414.43L273.36,404.13L276.36,402.54L300.4,389.27L303.4,386.46L306.4,383.66L309.41,379.06L312.41,369.33L315.42,364.78L321.42,355.67L324.43,341.68L339.45,332.58L342.45,329.44L351.46,320.21L354.47,319.34L366.48,315.84L369.49,313.24L381.5,302.01L384.51,295.73L387.51,290.46L390.51,290.74L399.53,291.58L402.53,290.84L411.54,280.97L414.55,276.21L417.55,271.44L420.55,275.26L429.57,289.83L432.57,279.77L435.57,271.62L438.58,267.32L447.59,257.91L450.59,253.14L456.6,243.61L459.61,240.34L465.61,256.42L468.62,258.28L477.63,228.11L480.63,221.7L483.64,216.3L486.64,215.24L495.65,221.93L498.66,222.35L510.67,218.86L513.68,210.28L516.68,192.9L519.69,190.1L531.7,178.05L534.7,174.8L537.71,173.23L540.71,172.74L552.73,170.77L555.73,171.22L567.75,178.31L570.75,176.2L573.76,160.39L576.76,152.58L579.76,145.94L582.77,154.41L585.77,164.26L588.78,162.36L594.78,158.56L597.79,144.19L600.79,128.82L603.8,129.29L606.8,129.77L609.8,127.99L618.82,114.47L621.82,115.49L624.82,183.65L627.83,136.58L633.84,171.2L636.84,170.32L639.84,197.96L642.85,209.29L645.85,491.68L648.86,617.33L651.86,633.44L654.86,693.57L660.87,707.69L663.88,712.3L666.88,716.92L669.88,715.33L675.89,706.22L678.9,687.42L681.9,675.27L684.9,685.53L693.91,715L696.92,741.96L699.92,762.92L702.93,778.47L705.93,792.24L708.93,800.93L729.96,812.31L732.97,812.95L757,817.79L760,817.3L790.04,811.75L793.05,810.94L829.09,801.67L832.1,801.22L850.12,800.87L853.12,799.72L865.14,795L868.14,791.3L874.15,783.92L877.16,777.88L880.16,771.26L883.16,753.81L895.18,743.27L898.18,747.23L910.2,763.39L913.2,768.55L919.21,778.41L922.22,782.21L928.22,789.83L931.23,792.1L961.27,796.12L964.27,795.56L985.3,791.7L988.3,789.59L1000.32,781.61L1003.32,780.17L1015.34,774.8L1018.34,774.07L1024.35,772.61L1027.35,773.09L1045.38,786.65L1048.38,788.5L1054.39,791.83L1057.39,792.8L1075.42,797.96L1078.42,798.43L1123.48,804.94L1126.49,805.3L1147.51,807.25L1150.52,806.99L1189.57,803.01L1192.57,802.71L1210.6,801.38L1213.6,801.92L1240.64,805.99L1243.64,806.16L1294.71,808.38L1297.71,808.36L1330.75,807.53L1333.76,807.31L1342.77,806.41L1345.77,804.98L1354.79,800.69L1357.79,800.68L1375.81,800.61L1378.82,799.58L1399.85,791.45L1402.85,791.2L1417.87,790.28L1420.87,791L1435.89,794.91L1438.9,796.76L1450.91,803.41L1453.92,804.66L1471.94,812.81L1474.94,814.58L1483.96,819.7L1486.96,820.43L1517,827.64" style="vector-effect: non-scaling-stroke; fill: none; stroke: rgb(0, 0, 0); stroke-opacity: 1; stroke-width: 3px; opacity: 1; stroke-dasharray: 3px, 3px;"/></g><g class="points"/><g class="text"/></g></g></g><g class="overplot"/><path class="xlines-above crisp" d="M0,0" style="fill: none;"/><path class="ylines-above crisp" d="M0,0" style="fill: none;"/><g class="overlines-above"/><g class="xaxislayer-above"><g class="xtick"><text text-anchor="middle" x="0" y="1013" transform="translate(263.34000000000003,0)" style="font-family: 'Open Sans', verdana, arial, sans-serif; font-size: 12px; fill: rgb(42, 63, 95); fill-opacity: 1; white-space: pre;">400</text></g><g class="xtick"><text text-anchor="middle" x="0" y="1013" transform="translate(455.92,0)" style="font-family: 'Open Sans', verdana, arial, sans-serif; font-size: 12px; fill: rgb(42, 63, 95); fill-opacity: 1; white-space: pre;">500</text></g><g class="xtick"><text text-anchor="middle" x="0" y="1013" transform="translate(648.51,0)" style="font-family: 'Open Sans', verdana, arial, sans-serif; font-size: 12px; fill: rgb(42, 63, 95); fill-opacity: 1; white-space: pre;">600</text></g><g class="xtick"><text text-anchor="middle" x="0" y="1013" transform="translate(841.09,0)" style="font-family: 'Open Sans', verdana, arial, sans-serif; font-size: 12px; fill: rgb(42, 63, 95); fill-opacity: 1; white-space: pre;">700</text></g><g class="xtick"><text text-anchor="middle" x="0" y="1013" transform="translate(1033.67,0)" style="font-family: 'Open Sans', verdana, arial, sans-serif; font-size: 12px; fill: rgb(42, 63, 95); fill-opacity: 1; white-space: pre;">800</text></g><g class="xtick"><text text-anchor="middle" x="0" y="1013" transform="translate(1226.26,0)" style="font-family: 'Open Sans', verdana, arial, sans-serif; font-size: 12px; fill: rgb(42, 63, 95); fill-opacity: 1; white-space: pre;">900</text></g><g class="xtick"><text text-anchor="middle" x="0" y="1013" transform="translate(1418.84,0)" style="font-family: 'Open Sans', verdana, arial, sans-serif; font-size: 12px; fill: rgb(42, 63, 95); fill-opacity: 1; white-space: pre;">1000</text></g></g><g class="yaxislayer-above"><g class="ytick"><text text-anchor="end" x="79" y="4.199999999999999" transform="translate(0,958.1)" style="font-family: 'Open Sans', verdana, arial, sans-serif; font-size: 12px; fill: rgb(42, 63, 95); fill-opacity: 1; white-space: pre;">0</text></g><g class="ytick"><text text-anchor="end" x="79" y="4.199999999999999" transform="translate(0,806.11)" style="font-family: 'Open Sans', verdana, arial, sans-serif; font-size: 12px; fill: rgb(42, 63, 95); fill-opacity: 1; white-space: pre;">20</text></g><g class="ytick"><text text-anchor="end" x="79" y="4.199999999999999" transform="translate(0,654.12)" style="font-family: 'Open Sans', verdana, arial, sans-serif; font-size: 12px; fill: rgb(42, 63, 95); fill-opacity: 1; white-space: pre;">40</text></g><g class="ytick"><text text-anchor="end" x="79" y="4.199999999999999" transform="translate(0,502.12)" style="font-family: 'Open Sans', verdana, arial, sans-serif; font-size: 12px; fill: rgb(42, 63, 95); fill-opacity: 1; white-space: pre;">60</text></g><g class="ytick"><text text-anchor="end" x="79" y="4.199999999999999" transform="translate(0,350.13)" style="font-family: 'Open Sans', verdana, arial, sans-serif; font-size: 12px; fill: rgb(42, 63, 95); fill-opacity: 1; white-space: pre;">80</text></g><g class="ytick"><text text-anchor="end" x="79" y="4.199999999999999" transform="translate(0,198.14)" style="font-family: 'Open Sans', verdana, arial, sans-serif; font-size: 12px; fill: rgb(42, 63, 95); fill-opacity: 1; white-space: pre;">100</text></g></g><g class="overaxes-above"/></g></g><g class="polarlayer"/><g class="ternarylayer"/><g class="geolayer"/><g class="funnelarealayer"/><g class="pielayer"/><g class="treemaplayer"/><g class="sunburstlayer"/><g class="glimages"/><defs id="topdefs-ed70bf"><g class="clips"/><clipPath id="legended70bf"><rect width="281" height="216" x="0" y="0"/></clipPath></defs><g class="layer-above"><g class="imagelayer"/><g class="shapelayer"/></g><g class="infolayer"><g class="legend" pointer-events="all" transform="translate(1627.34, 100)"><rect class="bg" shape-rendering="crispEdges" width="281" height="216" x="0" y="0" style="stroke: rgb(68, 68, 68); stroke-opacity: 1; fill: rgb(255, 255, 255); fill-opacity: 1; stroke-width: 0px;"/><g class="scrollbox" transform="translate(0, 0)" clip-path="url('#legended70bf')"><text class="legendtitletext user-select-none" text-anchor="start" x="2" y="15.600000000000001" style="font-family: 'Open Sans', verdana, arial, sans-serif; font-size: 12px; fill: rgb(42, 63, 95); fill-opacity: 1; white-space: pre;"><tspan style="font-weight:bold"> Sensors </tspan></text><g class="groups"><g class="traces" transform="translate(0, 30.1)" style="opacity: 1;"><text class="legendtext user-select-none" text-anchor="start" x="40" y="4.680000000000001" style="font-family: 'Open Sans', verdana, arial, sans-serif; font-size: 12px; fill: rgb(42, 63, 95); fill-opacity: 1; white-space: pre;">LiCOR 192 quantum sensor normalized</text><g class="layers" style="opacity: 1;"><g class="legendfill"/><g class="legendlines"><path class="js-line" d="M5,0h30" style="fill: none; stroke: rgb(255, 165, 0); stroke-opacity: 1; stroke-width: 2px;"/></g><g class="legendsymbols"><g class="legendpoints"/></g></g><rect class="legendtoggle" pointer-events="all" x="0" y="-9.5" width="275.75" height="19" style="cursor: pointer; fill: rgb(0, 0, 0); fill-opacity: 0;"/></g><g class="traces" transform="translate(0, 49.1)" style="opacity: 1;"><text class="legendtext user-select-none" text-anchor="start" x="40" y="4.680000000000001" style="font-family: 'Open Sans', verdana, arial, sans-serif; font-size: 12px; fill: rgb(42, 63, 95); fill-opacity: 1; white-space: pre;">LiCOR 192 quantum sensor</text><g class="layers" style="opacity: 1;"><g class="legendfill"/><g class="legendlines"><path class="js-line" d="M5,0h30" style="fill: none; stroke: rgb(255, 165, 0); stroke-opacity: 1; stroke-dasharray: 3px, 3px; stroke-width: 3px;"/></g><g class="legendsymbols"><g class="legendpoints"/></g></g><rect class="legendtoggle" pointer-events="all" x="0" y="-9.5" width="275.75" height="19" style="cursor: pointer; fill: rgb(0, 0, 0); fill-opacity: 0;"/></g><g class="traces" transform="translate(0, 68.1)" style="opacity: 1;"><text class="legendtext user-select-none" text-anchor="start" x="40" y="4.680000000000001" style="font-family: 'Open Sans', verdana, arial, sans-serif; font-size: 12px; fill: rgb(42, 63, 95); fill-opacity: 1; white-space: pre;">TCS 34725 RED normalized</text><g class="layers" style="opacity: 1;"><g class="legendfill"/><g class="legendlines"><path class="js-line" d="M5,0h30" style="fill: none; stroke: rgb(255, 0, 0); stroke-opacity: 1; stroke-width: 2px;"/></g><g class="legendsymbols"><g class="legendpoints"/></g></g><rect class="legendtoggle" pointer-events="all" x="0" y="-9.5" width="275.75" height="19" style="cursor: pointer; fill: rgb(0, 0, 0); fill-opacity: 0;"/></g><g class="traces" transform="translate(0, 87.1)" style="opacity: 1;"><text class="legendtext user-select-none" text-anchor="start" x="40" y="4.680000000000001" style="font-family: 'Open Sans', verdana, arial, sans-serif; font-size: 12px; fill: rgb(42, 63, 95); fill-opacity: 1; white-space: pre;">TCS 34725 RED</text><g class="layers" style="opacity: 1;"><g class="legendfill"/><g class="legendlines"><path class="js-line" d="M5,0h30" style="fill: none; stroke: rgb(255, 0, 0); stroke-opacity: 1; stroke-dasharray: 3px, 3px; stroke-width: 3px;"/></g><g class="legendsymbols"><g class="legendpoints"/></g></g><rect class="legendtoggle" pointer-events="all" x="0" y="-9.5" width="275.75" height="19" style="cursor: pointer; fill: rgb(0, 0, 0); fill-opacity: 0;"/></g><g class="traces" transform="translate(0, 106.1)" style="opacity: 1;"><text class="legendtext user-select-none" text-anchor="start" x="40" y="4.680000000000001" style="font-family: 'Open Sans', verdana, arial, sans-serif; font-size: 12px; fill: rgb(42, 63, 95); fill-opacity: 1; white-space: pre;">TCS 34725 GREEN normalized</text><g class="layers" style="opacity: 1;"><g class="legendfill"/><g class="legendlines"><path class="js-line" d="M5,0h30" style="fill: none; stroke: rgb(0, 128, 0); stroke-opacity: 1; stroke-width: 2px;"/></g><g class="legendsymbols"><g class="legendpoints"/></g></g><rect class="legendtoggle" pointer-events="all" x="0" y="-9.5" width="275.75" height="19" style="cursor: pointer; fill: rgb(0, 0, 0); fill-opacity: 0;"/></g><g class="traces" transform="translate(0, 125.1)" style="opacity: 1;"><text class="legendtext user-select-none" text-anchor="start" x="40" y="4.680000000000001" style="font-family: 'Open Sans', verdana, arial, sans-serif; font-size: 12px; fill: rgb(42, 63, 95); fill-opacity: 1; white-space: pre;">TCS 34725 GREEN</text><g class="layers" style="opacity: 1;"><g class="legendfill"/><g class="legendlines"><path class="js-line" d="M5,0h30" style="fill: none; stroke: rgb(0, 128, 0); stroke-opacity: 1; stroke-dasharray: 3px, 3px; stroke-width: 3px;"/></g><g class="legendsymbols"><g class="legendpoints"/></g></g><rect class="legendtoggle" pointer-events="all" x="0" y="-9.5" width="275.75" height="19" style="cursor: pointer; fill: rgb(0, 0, 0); fill-opacity: 0;"/></g><g class="traces" transform="translate(0, 144.1)" style="opacity: 1;"><text class="legendtext user-select-none" text-anchor="start" x="40" y="4.680000000000001" style="font-family: 'Open Sans', verdana, arial, sans-serif; font-size: 12px; fill: rgb(42, 63, 95); fill-opacity: 1; white-space: pre;">TCS 34725 BLUE normalized</text><g class="layers" style="opacity: 1;"><g class="legendfill"/><g class="legendlines"><path class="js-line" d="M5,0h30" style="fill: none; stroke: rgb(0, 0, 255); stroke-opacity: 1; stroke-width: 2px;"/></g><g class="legendsymbols"><g class="legendpoints"/></g></g><rect class="legendtoggle" pointer-events="all" x="0" y="-9.5" width="275.75" height="19" style="cursor: pointer; fill: rgb(0, 0, 0); fill-opacity: 0;"/></g><g class="traces" transform="translate(0, 163.1)" style="opacity: 1;"><text class="legendtext user-select-none" text-anchor="start" x="40" y="4.680000000000001" style="font-family: 'Open Sans', verdana, arial, sans-serif; font-size: 12px; fill: rgb(42, 63, 95); fill-opacity: 1; white-space: pre;">TCS 34725 BLUE</text><g class="layers" style="opacity: 1;"><g class="legendfill"/><g class="legendlines"><path class="js-line" d="M5,0h30" style="fill: none; stroke: rgb(0, 0, 255); stroke-opacity: 1; stroke-dasharray: 3px, 3px; stroke-width: 3px;"/></g><g class="legendsymbols"><g class="legendpoints"/></g></g><rect class="legendtoggle" pointer-events="all" x="0" y="-9.5" width="275.75" height="19" style="cursor: pointer; fill: rgb(0, 0, 0); fill-opacity: 0;"/></g><g class="traces" transform="translate(0, 182.1)" style="opacity: 1;"><text class="legendtext user-select-none" text-anchor="start" x="40" y="4.680000000000001" style="font-family: 'Open Sans', verdana, arial, sans-serif; font-size: 12px; fill: rgb(42, 63, 95); fill-opacity: 1; white-space: pre;">TCS 34725 CLEAR normalized</text><g class="layers" style="opacity: 1;"><g class="legendfill"/><g class="legendlines"><path class="js-line" d="M5,0h30" style="fill: none; stroke: rgb(0, 0, 0); stroke-opacity: 1; stroke-width: 2px;"/></g><g class="legendsymbols"><g class="legendpoints"/></g></g><rect class="legendtoggle" pointer-events="all" x="0" y="-9.5" width="275.75" height="19" style="cursor: pointer; fill: rgb(0, 0, 0); fill-opacity: 0;"/></g><g class="traces" transform="translate(0, 201.1)" style="opacity: 1;"><text class="legendtext user-select-none" text-anchor="start" x="40" y="4.680000000000001" style="font-family: 'Open Sans', verdana, arial, sans-serif; font-size: 12px; fill: rgb(42, 63, 95); fill-opacity: 1; white-space: pre;">TCS 34725 CLEAR</text><g class="layers" style="opacity: 1;"><g class="legendfill"/><g class="legendlines"><path class="js-line" d="M5,0h30" style="fill: none; stroke: rgb(0, 0, 0); stroke-opacity: 1; stroke-dasharray: 3px, 3px; stroke-width: 3px;"/></g><g class="legendsymbols"><g class="legendpoints"/></g></g><rect class="legendtoggle" pointer-events="all" x="0" y="-9.5" width="275.75" height="19" style="cursor: pointer; fill: rgb(0, 0, 0); fill-opacity: 0;"/></g></g></g><rect class="scrollbar" rx="20" ry="3" width="0" height="0" x="0" y="0" style="fill: rgb(128, 139, 164); fill-opacity: 1;"/></g><g class="g-gtitle"/><g class="g-xtitle"><text class="xtitle" x="838.5" y="1039.4" text-anchor="middle" style="font-family: 'Open Sans', verdana, arial, sans-serif; font-size: 12px; fill: rgb(42, 63, 95); opacity: 1; font-weight: normal; white-space: pre;">Wavelength (nm)</text></g><g class="g-ytitle"><text class="ytitle" transform="rotate(-90,32.709375,550)" x="32.709375" y="550" text-anchor="middle" style="font-family: 'Open Sans', verdana, arial, sans-serif; font-size: 12px; fill: rgb(42, 63, 95); opacity: 1; font-weight: normal; white-space: pre;">Relative Responsivity</text></g></g></svg>